<?xml version="1.0" standalone="no"?>
<!DOCTYPE svg PUBLIC "-//W3C//DTD SVG 20010904//EN"
 "http://www.w3.org/TR/2001/REC-SVG-20010904/DTD/svg10.dtd">
<svg version="1.0" xmlns="http://www.w3.org/2000/svg"
 width="181.565401pt" height="150.437231pt" viewBox="0 0 181.565401 150.437231"
 preserveAspectRatio="xMidYMid meet">
<metadata>
Created by potrace 1.12, written by Peter Selinger 2001-2015
</metadata>
<g transform="translate(-23.224853,187.437231) scale(0.100000,-0.100000)"
fill="#000000" stroke="none">
<path d="M1050 1869 c-165 -24 -319 -127 -405 -269 -40 -66 -61 -127 -76 -219
l-12 -69 -49 -7 c-68 -10 -54 -17 16 -9 l56 7 0 41 c0 64 46 227 57 199 2 -7
11 -9 18 -7 9 4 20 -6 30 -28 l15 -33 -6 40 c-5 39 -5 39 13 22 14 -14 18 -33
18 -82 0 -63 0 -65 30 -72 l30 -7 -40 -7 -40 -6 37 -2 c27 -1 44 6 64 24 15
14 32 25 39 25 7 0 19 8 26 18 11 14 11 15 -1 5 -8 -7 -24 -13 -36 -13 -24 0
-24 1 -9 105 3 17 1 25 -3 18 -4 -7 -13 -9 -20 -4 -9 6 -8 18 4 55 9 26 14 49
12 52 -3 2 -10 -14 -17 -36 -6 -22 -18 -40 -26 -40 -7 0 -15 -5 -17 -12 -2 -6
-14 -13 -26 -14 -20 -3 -20 -2 -10 21 14 30 6 41 -19 26 -10 -6 -12 -11 -5
-11 14 0 17 -20 2 -20 -6 0 -15 12 -21 26 -8 23 -5 33 18 67 59 85 179 162
303 193 85 22 231 15 315 -15 90 -32 189 -104 246 -179 l48 -64 -22 -19 -22
-18 23 4 c12 2 22 0 22 -6 0 -5 -4 -9 -8 -9 -10 0 -9 -56 1 -66 4 -4 7 8 7 27
0 51 15 68 28 32 5 -15 14 -37 18 -48 7 -18 6 -19 -12 -5 -18 14 -18 14 -3 -5
18 -22 39 -99 39 -143 0 -28 3 -30 51 -36 28 -4 53 -5 56 -3 2 3 -16 8 -41 11
l-45 7 -7 57 c-20 170 -109 317 -243 406 -116 78 -272 114 -401 95z"/>
<path d="M1157 1663 c-9 -9 -9 -43 1 -43 4 0 7 11 7 25 0 14 0 25 -1 25 0 0
-4 -3 -7 -7z"/>
<path d="M727 1640 c-3 -12 0 -20 7 -20 6 0 12 9 13 20 1 11 -2 20 -6 20 -5 0
-11 -9 -14 -20z"/>
<path d="M1207 1633 c-4 -3 -7 -14 -7 -24 0 -12 -5 -16 -14 -13 -19 7 -73 -22
-86 -46 -9 -17 -7 -22 12 -29 16 -6 26 -4 33 6 9 12 15 12 39 2 25 -12 30 -11
41 4 11 15 13 16 19 2 3 -8 10 -15 16 -15 14 0 13 33 -2 48 -16 16 -31 15 -22
0 5 -10 4 -10 -6 -1 -7 7 -13 26 -13 43 0 33 -1 33 -10 23z m-7 -58 c18 -22 4
-31 -25 -15 -19 10 -22 16 -13 22 18 11 24 10 38 -7z"/>
<path d="M1504 1597 c-1 -26 -8 -45 -20 -54 -10 -7 -13 -13 -6 -13 6 0 19 12
29 26 15 24 17 25 24 8 4 -11 8 -13 8 -6 1 7 -4 22 -9 32 -8 14 -6 21 6 28 11
6 13 11 5 16 -6 4 -11 2 -11 -5 0 -8 -4 -8 -12 -1 -10 8 -13 1 -14 -31z"/>
<path d="M887 1599 c-3 -11 -9 -19 -14 -18 -18 3 -47 -3 -35 -8 6 -2 10 -9 7
-14 -10 -15 26 3 51 26 19 18 21 24 10 28 -8 3 -16 -2 -19 -14z"/>
<path d="M1030 1612 c0 -4 4 -13 9 -20 7 -11 9 -11 14 1 3 9 -1 18 -9 21 -8 3
-14 2 -14 -2z"/>
<path d="M1345 1584 c18 -43 18 -47 5 -39 -6 3 -5 -6 2 -20 12 -27 12 -27 22
-6 5 12 13 21 18 21 4 0 -2 10 -14 22 -15 15 -18 23 -9 26 16 5 -5 32 -25 32
-12 0 -12 -6 1 -36z"/>
<path d="M1078 1588 c3 -15 2 -19 -7 -14 -9 6 -10 0 -6 -21 6 -25 5 -26 -8
-11 -13 16 -15 16 -33 -5 -11 -12 -18 -30 -16 -39 5 -27 22 -22 22 6 0 27 16
43 23 24 3 -10 7 -10 17 -1 16 15 23 70 11 78 -5 3 -7 -5 -3 -17z"/>
<path d="M935 1589 c4 -5 -1 -20 -12 -31 -18 -21 -18 -21 4 -7 26 16 38 49 16
49 -8 0 -11 -5 -8 -11z"/>
<path d="M1238 1483 c-3 -12 -1 -24 6 -28 6 -3 1 -3 -11 -1 -13 2 -26 0 -29
-5 -3 -5 9 -9 25 -9 17 0 31 4 31 10 0 5 7 7 16 3 14 -5 14 -3 3 15 -9 14 -16
17 -20 10 -4 -7 -8 -4 -11 8 -3 17 -4 17 -10 -3z"/>
<path d="M1115 1470 c-3 -5 1 -10 9 -10 9 0 16 -8 16 -17 0 -15 2 -15 9 -4 6
9 4 19 -4 28 -16 16 -22 16 -30 3z"/>
<path d="M1021 1453 c-1 -19 4 -23 28 -23 16 0 41 -4 55 -10 21 -7 26 -6 26 5
0 8 -6 15 -14 15 -8 0 -17 6 -19 13 -4 10 -6 10 -6 0 -1 -20 -59 -16 -64 5 -4
13 -5 11 -6 -5z"/>
<path d="M1340 1450 c-23 -7 -23 -8 -3 -9 12 -1 24 -7 26 -13 3 -7 6 -3 6 10
1 12 0 22 -1 21 -2 -1 -14 -5 -28 -9z"/>
<path d="M1600 1410 c6 -11 15 -18 21 -15 13 9 11 13 -12 25 -19 11 -20 10 -9
-10z"/>
<path d="M1361 1403 c-1 -6 -4 -19 -8 -29 -4 -12 -3 -15 5 -10 7 4 12 2 12 -5
0 -7 2 -10 5 -8 2 3 0 18 -4 35 -5 16 -10 24 -10 17z"/>
<path d="M1627 1382 c-4 -5 0 -15 8 -22 7 -6 11 -18 8 -26 -3 -8 0 -14 6 -14
15 0 13 19 -3 49 -7 13 -16 19 -19 13z"/>
<path d="M1160 1370 c-74 -4 -173 -6 -220 -4 l-85 3 70 -9 c111 -13 407 -11
402 3 -5 15 -5 15 -167 7z"/>
<path d="M915 1333 c-256 -20 -651 -88 -680 -116 -7 -6 -1 -8 15 -3 555 141
1187 145 1714 10 32 -8 61 -13 64 -10 7 7 -3 10 -133 40 -297 67 -713 101
-980 79z"/>
<path d="M1031 1305 c-1 -6 -22 -9 -50 -7 -44 3 -49 2 -45 -15 3 -10 -6 -49
-19 -88 l-24 -69 -16 49 c-17 49 -23 87 -7 50 5 -14 7 -8 6 22 -1 46 -12 57
-19 21 l-4 -23 -2 23 c-1 18 -7 22 -34 22 -41 0 -51 -8 -33 -26 8 -7 24 -45
35 -84 18 -59 20 -77 11 -105 -13 -39 -37 -62 -50 -49 -14 15 -51 219 -44 239
6 15 4 17 -17 12 -13 -4 -36 -7 -52 -7 -23 0 -27 -3 -22 -22 3 -13 -5 -72 -19
-133 -26 -114 -45 -146 -73 -123 -11 9 -13 39 -11 135 2 99 0 122 -10 118 -8
-3 -22 -5 -33 -5 -11 0 -22 -8 -25 -17 -18 -54 -69 -173 -73 -173 -7 0 -61
124 -61 140 0 13 -9 13 -46 0 l-29 -10 3 -78 c2 -42 -1 -132 -5 -199 -7 -105
-6 -124 7 -129 12 -5 11 -8 -5 -14 -32 -13 -5 -11 50 4 28 8 41 15 29 15 -20
1 -21 5 -19 149 2 135 1 139 -5 42 l-6 -105 -2 128 c-1 70 0 127 2 127 2 0 20
-42 40 -92 20 -51 40 -99 45 -106 6 -10 20 15 45 77 20 50 36 97 36 104 -1 6
-17 -30 -37 -81 -20 -51 -38 -91 -40 -89 -2 2 17 55 42 118 l44 114 -2 -163
c-1 -118 1 -162 10 -162 6 0 20 -3 30 -6 15 -5 15 -4 3 5 -8 6 -10 11 -5 11 6
0 9 28 9 67 l-2 68 7 -60 7 -60 4 44 c6 54 34 77 106 84 67 7 77 -1 78 -62 1
-44 4 -51 21 -52 11 0 27 -2 37 -4 17 -3 17 9 -1 80 -9 34 -8 42 6 50 9 6 25
18 35 28 23 22 24 10 1 -16 -18 -19 -17 -20 5 -8 l24 13 -4 -66 c-3 -66 2 -76
35 -76 7 0 6 4 -3 10 -12 8 -12 10 5 10 18 0 20 6 17 67 -2 55 3 85 27 153 16
47 30 80 30 74 1 -6 -10 -44 -24 -84 -17 -51 -25 -92 -23 -134 l1 -61 7 75 c4
41 19 107 33 145 l26 70 0 -118 c1 -117 1 -119 30 -148 25 -25 37 -29 81 -29
44 0 56 4 81 30 l30 30 -3 132 c-2 73 -7 142 -12 153 l-9 20 16 -20 c13 -16
16 -46 17 -152 0 -131 0 -133 -28 -164 -17 -20 -43 -35 -68 -40 l-39 -8 43 4
c53 4 88 33 103 86 17 56 8 239 -14 272 -10 15 -21 26 -25 25 -4 -1 -18 4 -31
11 -15 8 -42 11 -72 9 -30 -3 -50 -1 -53 6 -2 6 -5 7 -5 1z m-8 -37 c-9 -10
-19 -16 -22 -13 -2 3 -11 -7 -18 -22 l-13 -28 6 30 c7 38 18 51 43 51 19 0 19
-2 4 -18z m105 0 c17 -17 17 -309 0 -326 -18 -18 -46 -14 -58 7 -5 11 -10 81
-10 156 0 75 5 145 10 156 12 21 40 25 58 7z m53 -162 c0 -76 -2 -140 -5 -143
-3 -3 -6 63 -8 145 -2 83 0 148 4 144 4 -4 8 -70 9 -146z m-146 -5 c0 -82 -3
-147 -7 -144 -15 9 -9 293 6 293 1 0 1 -67 1 -149z m-331 8 c9 -47 16 -89 16
-92 0 -4 -19 -6 -42 -6 -24 1 -36 3 -27 6 10 2 19 19 23 41 15 95 14 102 -4
37 -11 -41 -17 -54 -14 -30 8 56 25 137 29 133 2 -2 10 -42 19 -89z m-187 -91
c-2 -35 -3 -9 -3 57 0 66 1 94 3 63 2 -32 2 -86 0 -120z m387 58 c-3 -14 -11
-26 -16 -26 -5 0 -7 6 -4 13 3 6 9 20 12 30 10 27 16 13 8 -17z m-156 -46 c0
-22 -1 -22 -8 5 -4 17 -8 39 -8 50 0 16 2 15 8 -5 4 -14 8 -36 8 -50z m-461
-137 c-2 -32 -3 -6 -3 57 0 63 1 89 3 58 2 -32 2 -84 0 -115z m27 -73 c4 -25
3 -31 -4 -20 -5 8 -10 26 -10 39 0 32 6 24 14 -19z m-4 -40 c13 -9 13 -10 0
-10 -8 0 -22 5 -30 10 -13 9 -13 10 0 10 8 0 22 -5 30 -10z"/>
<path d="M1082 1258 c-15 -15 -17 -285 -2 -308 6 -10 10 39 10 147 0 120 3
163 13 166 6 3 7 6 2 6 -6 1 -16 -4 -23 -11z"/>
<path d="M1238 1288 c17 -17 17 -364 0 -371 -7 -3 -4 -6 7 -6 17 -1 18 -3 5
-12 -11 -8 -7 -9 19 -5 18 3 43 6 54 6 16 0 18 3 9 12 -8 8 -12 46 -12 108 l1
95 23 -27 c20 -22 25 -42 30 -115 10 -127 15 -152 37 -174 21 -21 93 -27 105
-7 5 7 2 9 -9 5 -23 -9 -54 22 -61 61 -3 21 -2 31 4 27 6 -3 10 -19 10 -35 0
-16 4 -31 8 -34 4 -2 4 39 -1 91 -9 93 -28 170 -41 166 -3 -2 -14 5 -24 15
-17 16 -17 18 12 32 37 18 58 56 51 90 -4 21 -4 22 5 7 6 -9 8 -27 4 -40 -8
-29 -44 -67 -61 -67 -8 0 -12 -4 -8 -10 17 -28 86 42 85 87 -1 19 -29 75 -30
59 0 -5 -10 0 -22 12 -34 31 -72 42 -146 42 -51 0 -63 -3 -54 -12z m142 -30
c17 -18 20 -33 18 -76 -2 -30 -7 -56 -12 -59 -5 -4 -6 0 -1 7 6 10 4 11 -11 6
-55 -23 -54 -24 -54 63 0 74 2 81 20 81 10 0 29 -10 40 -22z m57 -46 c6 -25
-13 -79 -24 -68 -4 3 -1 12 5 18 16 16 15 50 -3 74 -8 10 -14 24 -14 29 0 16
29 -28 36 -53z m-150 -175 c-2 -23 -3 -1 -3 48 0 50 1 68 3 42 2 -26 2 -67 0
-90z m117 0 c8 -23 16 -79 18 -124 4 -107 -8 -83 -15 30 -3 56 -11 96 -21 112
-18 27 -21 39 -7 30 5 -3 16 -24 25 -48z m45 -72 c4 -36 4 -62 0 -58 -8 10
-21 139 -13 130 4 -3 10 -36 13 -72z"/>
<path d="M1332 1198 l2 -73 3 65 c2 35 9 68 16 72 8 5 6 8 -5 8 -16 0 -18 -9
-16 -72z"/>
<path d="M745 1260 c-4 -17 -5 -34 -2 -36 2 -3 7 10 11 27 8 42 0 50 -9 9z"/>
<path d="M1573 1258 c4 -13 -6 -74 -38 -214 -2 -11 -16 -26 -30 -32 -14 -6
-25 -17 -25 -24 0 -9 3 -9 12 0 7 7 32 12 55 12 38 0 43 -2 35 -17 -15 -29
-23 -85 -12 -78 6 3 10 15 10 26 0 30 19 59 38 59 15 0 15 -2 2 -10 -11 -8 -8
-9 11 -4 26 5 28 3 38 -45 6 -28 10 -55 10 -59 -4 -22 4 -28 34 -25 l32 3 -30
-10 c-21 -8 -60 -7 -128 1 -53 7 -99 10 -102 7 -3 -2 39 -10 93 -17 53 -7 144
-22 201 -32 57 -11 105 -18 108 -16 2 3 -40 13 -93 23 -67 13 -90 20 -74 24
18 4 25 13 27 33 1 16 -2 25 -8 21 -6 -3 -7 5 -4 23 5 21 4 24 -4 13 -9 -13
-11 -13 -11 2 0 9 -3 23 -6 31 -4 11 2 16 23 19 22 2 29 9 31 31 l3 27 -25
-25 c-34 -34 -50 -24 -43 29 4 25 3 33 -2 21 -7 -17 -9 -14 -15 17 -4 20 -4
49 -1 65 4 21 3 23 -3 9 -7 -16 -11 -9 -20 35 -7 38 -7 57 0 64 8 7 9 5 5 -7
-4 -10 -2 -18 3 -18 12 0 13 27 3 33 -5 3 -30 8 -57 12 -42 7 -48 5 -43 -7z
m63 -173 l20 -94 -25 6 c-44 10 -69 22 -50 22 12 1 19 14 24 47 3 26 9 53 13
62 3 9 1 13 -5 9 -6 -4 -14 -30 -18 -58 -4 -27 -9 -48 -12 -45 -7 7 19 146 27
146 4 0 16 -43 26 -95z m22 20 c0 -16 -2 -15 -8 5 -4 14 -8 34 -8 45 0 16 2
15 8 -5 4 -14 8 -34 8 -45z"/>
<path d="M556 1238 c-3 -13 -5 -70 -4 -128 l2 -105 6 125 c3 69 5 126 4 128
-1 1 -4 -8 -8 -20z"/>
<path d="M1770 1229 c0 -4 5 -11 10 -14 11 -7 13 -148 4 -208 -6 -30 -12 -39
-38 -47 -31 -10 -31 -10 7 -6 l37 5 0 -51 c0 -37 -5 -54 -17 -64 -16 -12 -16
-12 6 -7 16 4 22 3 17 -5 -8 -13 28 -25 53 -17 23 7 107 -12 139 -31 22 -14
22 -14 22 38 l0 51 -23 -21 c-24 -23 -45 -26 -84 -16 -22 6 -23 12 -25 103
l-2 96 -7 -90 c-4 -61 -5 -39 -3 70 3 93 8 161 14 163 6 2 10 8 10 13 0 4 -7
6 -15 3 -9 -4 -15 -25 -18 -62 l-3 -57 -2 63 c-1 36 2 62 8 62 6 0 10 4 10 8
0 4 -22 13 -50 18 -27 6 -50 7 -50 3z m57 -271 c-2 -29 -3 -8 -3 47 0 55 1 79
3 53 2 -26 2 -71 0 -100z"/>
<path d="M371 1135 c0 -5 6 -21 14 -35 8 -14 14 -20 14 -15 0 6 -6 21 -14 35
-8 14 -14 21 -14 15z"/>
<path d="M1334 1005 c0 -49 1 -71 3 -48 2 23 2 64 0 90 -2 26 -3 8 -3 -42z"/>
<path d="M1498 973 c-7 -9 -7 -13 0 -13 6 0 13 6 15 13 3 6 6 3 6 -8 1 -11 -6
-33 -14 -49 -20 -37 -20 -36 18 -37 30 -1 31 -1 7 -9 l-25 -8 29 -1 c25 -1 28
2 24 24 -3 14 -2 43 2 65 7 40 7 40 -22 38 -16 -1 -34 -8 -40 -15z"/>
<path d="M604 972 c-6 -4 -15 -23 -19 -42 -4 -19 -13 -45 -21 -57 -18 -29 -19
-28 19 -30 25 -2 29 0 17 8 -11 8 -7 9 19 5 31 -6 33 -5 27 19 -3 13 -2 43 3
65 8 37 7 40 -13 40 -11 0 -26 -4 -32 -8z m30 -87 c5 -22 4 -26 -4 -15 -5 8
-10 24 -10 34 0 26 6 18 14 -19z"/>
<path d="M800 954 c0 -10 5 -26 10 -34 8 -11 9 -7 4 15 -8 37 -14 45 -14 19z"/>
<path d="M1350 901 c0 -6 -17 -12 -37 -14 l-38 -4 43 -1 c31 -2 42 2 42 13 0
8 -2 15 -5 15 -3 0 -5 -4 -5 -9z"/>
<path d="M860 863 c-131 -10 -496 -70 -487 -80 3 -2 51 5 108 16 219 42 374
55 636 56 138 0 249 3 246 8 -4 7 -411 7 -503 0z"/>
<path d="M2021 813 c-1 -46 -4 -53 -22 -53 -11 0 -18 4 -15 9 4 5 -4 6 -16 3
-19 -5 -16 -8 22 -19 25 -7 49 -11 55 -9 5 3 3 5 -5 5 -12 1 -15 10 -12 40 2
21 2 47 -1 57 -3 11 -5 -5 -6 -33z"/>
<path d="M765 784 c22 -19 74 -52 116 -73 166 -83 349 -79 524 12 31 16 43 26
30 26 -11 0 -29 -6 -40 -15 -11 -8 -55 -26 -98 -39 -172 -55 -363 -22 -502 85
-64 49 -84 52 -30 4z"/>
<path d="M1527 786 c-4 -9 -23 -16 -49 -19 l-43 -4 48 -1 c35 -2 49 2 54 13 3
9 3 18 0 21 -2 3 -7 -2 -10 -10z"/>
<path d="M1611 791 c-12 -8 -12 -12 -2 -25 14 -17 31 -13 31 7 0 7 -4 6 -11
-3 -9 -12 -10 -11 -6 8 3 12 4 22 4 22 -1 0 -8 -4 -16 -9z"/>
<path d="M922 538 c-22 -29 -42 -79 -42 -108 0 -23 4 -30 20 -30 11 0 20 5 20
11 0 8 5 7 16 -1 12 -11 18 -10 31 3 15 15 17 15 28 0 11 -15 15 -14 40 11 15
15 24 30 21 33 -3 4 -13 -2 -21 -13 -15 -18 -15 -18 -9 9 4 17 2 27 -5 27 -7
0 -23 -12 -36 -27 -13 -16 -25 -23 -25 -16 0 17 60 64 72 57 6 -4 8 -1 6 7
-10 27 -53 9 -95 -38 -50 -56 -58 -38 -13 28 16 24 30 47 30 52 0 12 -27 8
-38 -5z"/>
<path d="M1191 538 c-12 -4 -19 -12 -16 -18 3 -5 -1 -20 -9 -32 -9 -12 -16
-31 -16 -41 0 -10 -10 -21 -22 -26 -31 -11 -5 -24 33 -16 24 5 28 10 19 20
-19 23 28 94 70 107 9 3 5 7 -11 10 -14 2 -36 1 -48 -4z"/>
<path d="M1324 528 c-12 -14 -27 -22 -40 -20 -43 6 -97 -92 -58 -105 7 -2 19
3 28 12 14 15 16 15 16 1 0 -20 24 -21 40 -1 10 13 14 12 30 -7 16 -20 21 -21
45 -10 23 11 30 11 36 0 6 -10 13 -10 26 -2 14 9 20 8 29 -4 8 -12 15 -12 32
-3 12 6 22 8 22 2 0 -22 32 -19 55 6 26 29 26 46 0 19 -9 -9 -21 -16 -26 -16
-15 0 4 30 40 64 29 28 41 56 24 56 -13 0 -28 -14 -67 -62 -38 -47 -68 -66
-44 -28 19 29 1 36 -27 10 -14 -13 -27 -21 -31 -18 -10 11 39 48 63 48 14 0
21 4 18 10 -13 21 -61 9 -99 -25 -36 -32 -86 -47 -86 -26 0 5 12 9 27 9 29 0
55 26 46 48 -10 27 -53 15 -88 -23 -43 -47 -46 -31 -4 27 20 27 27 46 21 52
-6 6 -16 1 -28 -14z m-24 -41 c0 -2 -13 -16 -30 -32 -33 -32 -42 -21 -10 13
18 19 40 29 40 19z"/>
<path d="M600 525 c0 -8 7 -15 15 -15 8 0 15 7 15 15 0 8 -7 15 -15 15 -8 0
-15 -7 -15 -15z"/>
<path d="M685 516 c-35 -15 -65 -46 -45 -46 9 0 8 -6 -4 -19 -26 -28 -6 -71
33 -71 15 0 34 7 41 15 9 11 16 12 31 2 24 -15 53 1 57 32 3 16 -2 21 -17 21
-24 0 -28 15 -6 24 8 3 15 1 15 -5 0 -6 5 -7 10 -4 19 12 10 35 -13 35 -27 0
-47 -17 -47 -41 0 -19 -45 -59 -66 -59 -27 0 -14 36 19 53 l32 16 -29 0 c-38
1 -24 17 30 36 22 8 34 14 27 15 -6 0 -17 2 -25 5 -7 2 -27 -2 -43 -9z m95
-85 c0 -14 -18 -23 -30 -16 -6 4 -8 11 -5 16 8 12 35 12 35 0z"/>
<path d="M1683 487 c-21 -12 -63 -59 -63 -71 0 -8 90 61 91 69 1 13 -6 13 -28
2z"/>
<path d="M572 438 c-18 -28 -30 -53 -28 -56 9 -9 63 57 68 83 8 37 -3 30 -40
-27z"/>
<path d="M1597 393 c-12 -11 -8 -23 8 -23 8 0 15 7 15 15 0 16 -12 20 -23 8z"/>
</g>
</svg>
